# xmcd
#
# Track frame offsets:
#	183
#	11333
#	26398
#	42273
#	52438
#	74488
#	88603
#	104373
#	115803
#	134680
#	145410
#	156638
#	170808
#	185520
#	198783
#	212865
#	229413
#	252203
#	270823
#
# Disc length: 3825 seconds
#
# Revision: 1
# Processed by: cddbd v1.4PL0 Copyright (c) Steve Scherf et al.
# Submitted via: audiograbber 1.81.01
#
DISCID=1e0eef13
DTITLE=Steve Gibson - Country Music
DYEAR=1992
DGENRE=Country
TTITLE0=The Legend
TTITLE1=Play born to lose again
TTITLE2=Love song singer
TTITLE3=Love spelled hurt
TTITLE4=Circles
TTITLE5=I'm a luva luva you
TTITLE6=Drift away
TTITLE7=Highway tramp
TTITLE8=Cindy's song
TTITLE9=It takes two
TTITLE10=Heart wreck
TTITLE11=Amanda
TTITLE12=Wyoming woman
TTITLE13=Promises land
TTITLE14=One by one
TTITLE15=Before the next teardrops fall
TTITLE16=hey Johnny
TTITLE17=You give me a mountain
TTITLE18=I'm leaving alone
EXTD=
EXTT0=
EXTT1=
EXTT2=
EXTT3=
EXTT4=
EXTT5=
EXTT6=
EXTT7=
EXTT8=
EXTT9=
EXTT10=
EXTT11=
EXTT12=
EXTT13=
EXTT14=
EXTT15=
EXTT16=
EXTT17=
EXTT18=
PLAYORDER=
